name ./resultDataOpenSim/trcMotMarkerGrf/sub09/grf-13-05.mot
datacolumns 19
datarows 12
range 1.51200000 1.55600000
endheader

                time	     ground_force_vx	     ground_force_vy	     ground_force_vz	     ground_force_px	     ground_force_py	     ground_force_pz	   l_ground_force_vx	   l_ground_force_vy	   l_ground_force_vz	   l_ground_force_px	   l_ground_force_py	   l_ground_force_pz	     ground_torque_x	     ground_torque_y	     ground_torque_z	   l_ground_torque_x	   l_ground_torque_y	   l_ground_torque_z	
          1.51200000	        -37.18688959	        457.29655967	         -8.76148249	          1.10070645	          0.00000000	          0.06407931	          0.00000000	          0.00000000	          0.00000000	          0.00000000	          0.00000000	          0.00000000	          0.00000000	          3.40763557	          0.00000000	          0.00000000	          0.00000000	          0.00000000	
          1.51600000	        -35.32786335	        457.67505987	        -10.74682664	          1.10220142	          0.00000000	          0.06403159	          0.00000000	          0.00000000	          0.00000000	          0.00000000	          0.00000000	          0.00000000	          0.00000000	          3.10443233	          0.00000000	          0.00000000	          0.00000000	          0.00000000	
          1.52000000	        -34.14920064	        458.43345216	        -13.24719241	          1.10370352	          0.00000000	          0.06401788	          0.00000000	          0.00000000	          0.00000000	          0.00000000	          0.00000000	          0.00000000	          0.00000000	          2.75922208	          0.00000000	          0.00000000	          0.00000000	          0.00000000	
          1.52400000	        -33.70139835	        459.54034469	        -15.75122344	          1.10520250	          0.00000000	          0.06401158	          0.00000000	          0.00000000	          0.00000000	          0.00000000	          0.00000000	          0.00000000	          0.00000000	          2.43397330	          0.00000000	          0.00000000	          0.00000000	          0.00000000	
          1.52800000	        -33.82398033	        460.95604188	        -17.78292833	          1.10665367	          0.00000000	          0.06398164	          0.00000000	          0.00000000	          0.00000000	          0.00000000	          0.00000000	          0.00000000	          0.00000000	          2.18240189	          0.00000000	          0.00000000	          0.00000000	          0.00000000	
          1.53200000	        -34.20751906	        462.60821014	        -18.97720714	          1.10802330	          0.00000000	          0.06391577	          0.00000000	          0.00000000	          0.00000000	          0.00000000	          0.00000000	          0.00000000	          0.00000000	          2.04226819	          0.00000000	          0.00000000	          0.00000000	          0.00000000	
          1.53600000	        -34.49018660	        464.41204380	        -19.14085549	          1.10928455	          0.00000000	          0.06381228	          0.00000000	          0.00000000	          0.00000000	          0.00000000	          0.00000000	          0.00000000	          0.00000000	          2.03091857	          0.00000000	          0.00000000	          0.00000000	          0.00000000	
          1.54000000	        -34.35793174	        466.30252785	        -18.27842584	          1.11040976	          0.00000000	          0.06367155	          0.00000000	          0.00000000	          0.00000000	          0.00000000	          0.00000000	          0.00000000	          0.00000000	          2.14358668	          0.00000000	          0.00000000	          0.00000000	          0.00000000	
          1.54400000	        -33.62170145	        468.24329920	        -16.58301877	          1.11138954	          0.00000000	          0.06349530	          0.00000000	          0.00000000	          0.00000000	          0.00000000	          0.00000000	          0.00000000	          0.00000000	          2.35452696	          0.00000000	          0.00000000	          0.00000000	          0.00000000	
          1.54800000	        -32.25341286	        470.22288501	        -14.40424411	          1.11224125	          0.00000000	          0.06328880	          0.00000000	          0.00000000	          0.00000000	          0.00000000	          0.00000000	          0.00000000	          0.00000000	          2.62158791	          0.00000000	          0.00000000	          0.00000000	          0.00000000	
          1.55200000	        -30.37746153	        472.25406292	        -12.18727450	          1.11298726	          0.00000000	          0.06306397	          0.00000000	          0.00000000	          0.00000000	          0.00000000	          0.00000000	          0.00000000	          0.00000000	          2.89437947	          0.00000000	          0.00000000	          0.00000000	          0.00000000	
          1.55600000	        -28.22834037	        474.37382648	        -10.37673317	          1.11364953	          0.00000000	          0.06283557	          0.00000000	          0.00000000	          0.00000000	          0.00000000	          0.00000000	          0.00000000	          0.00000000	          3.12475349	          0.00000000	          0.00000000	          0.00000000	          0.00000000	
